<svg width="20" height="20" viewBox="0 0 20 20" fill="none" xmlns="http://www.w3.org/2000/svg">
<g id="Setting">
<path id="Vector" d="M17.2762 10.975C17.3137 10.6625 17.3387 10.3375 17.3387 10C17.3387 9.6625 17.3137 9.3375 17.2637 9.025L19.3762 7.375C19.5637 7.225 19.6137 6.95 19.5012 6.7375L17.5012 3.275C17.3762 3.05 17.1137 2.975 16.8887 3.05L14.4012 4.05C13.8762 3.65 13.3262 3.325 12.7137 3.075L12.3387 0.425C12.3012 0.175 12.0887 0 11.8387 0H7.83869C7.58869 0 7.38869 0.175 7.35119 0.425L6.97619 3.075C6.36369 3.325 5.80119 3.6625 5.28869 4.05L2.80119 3.05C2.57619 2.9625 2.31369 3.05 2.18869 3.275L0.188693 6.7375C0.0636934 6.9625 0.113694 7.225 0.313694 7.375L2.42619 9.025C2.37619 9.3375 2.33869 9.675 2.33869 10C2.33869 10.325 2.36369 10.6625 2.41369 10.975L0.301193 12.625C0.113693 12.775 0.0636934 13.05 0.176193 13.2625L2.17619 16.725C2.30119 16.95 2.56369 17.025 2.78869 16.95L5.27619 15.95C5.80119 16.35 6.35119 16.675 6.96369 16.925L7.33869 19.575C7.38869 19.825 7.58869 20 7.83869 20H11.8387C12.0887 20 12.3012 19.825 12.3262 19.575L12.7012 16.925C13.3137 16.675 13.8762 16.3375 14.3887 15.95L16.8762 16.95C17.1012 17.0375 17.3637 16.95 17.4887 16.725L19.4887 13.2625C19.6137 13.0375 19.5637 12.775 19.3637 12.625L17.2762 10.975ZM9.83869 13.75C7.77619 13.75 6.08869 12.0625 6.08869 10C6.08869 7.9375 7.77619 6.25 9.83869 6.25C11.9012 6.25 13.5887 7.9375 13.5887 10C13.5887 12.0625 11.9012 13.75 9.83869 13.75Z" fill="#456C97"/>
</g>
</svg>
