<svg width="204" height="54" viewBox="0 0 204 54" fill="none" xmlns="http://www.w3.org/2000/svg">
<g id="Group 7">
<g id="Hydra">
<path d="M29.5662 2.32665V40.0401H24.6406V22.9419H5.42555V40.0401H0.5V2.32665H5.42555V18.8838H24.6406V2.32665H29.5662Z" fill="#3D3D3D"/>
<path d="M63.5245 10.3888L45.6626 54H40.5747L46.4204 39.7154L34.4583 10.3888H39.9251L49.235 34.4128L58.4366 10.3888H63.5245Z" fill="#3D3D3D"/>
<path d="M66.6355 25.1062C66.6355 22.0762 67.249 19.4249 68.4758 17.1523C69.7027 14.8437 71.3807 13.0581 73.5097 11.7956C75.6747 10.5331 78.0924 9.9018 80.7627 9.9018C83.0721 9.9018 85.2191 10.4429 87.2038 11.5251C89.1884 12.5711 90.704 13.9599 91.7504 15.6914V0H96.7301V40.0401H91.7504V34.4669C90.7761 36.2345 89.3328 37.6954 87.4203 38.8497C85.5078 39.9679 83.2705 40.5271 80.7085 40.5271C78.0744 40.5271 75.6747 39.8778 73.5097 38.5792C71.3807 37.2806 69.7027 35.4589 68.4758 33.1142C67.249 30.7695 66.6355 28.1002 66.6355 25.1062ZM91.7504 25.1603C91.7504 22.9238 91.2994 20.976 90.3973 19.3166C89.4951 17.6573 88.2683 16.3948 86.7166 15.5291C85.2011 14.6273 83.5231 14.1764 81.6828 14.1764C79.8425 14.1764 78.1646 14.6092 76.649 15.4749C75.1335 16.3407 73.9246 17.6032 73.0225 19.2625C72.1204 20.9218 71.6693 22.8697 71.6693 25.1062C71.6693 27.3788 72.1204 29.3627 73.0225 31.0581C73.9246 32.7174 75.1335 33.998 76.649 34.8998C78.1646 35.7655 79.8425 36.1984 81.6828 36.1984C83.5231 36.1984 85.2011 35.7655 86.7166 34.8998C88.2683 33.998 89.4951 32.7174 90.3973 31.0581C91.2994 29.3627 91.7504 27.3968 91.7504 25.1603Z" fill="#3D3D3D"/>
<path d="M109.979 15.2044C110.845 13.509 112.072 12.1924 113.66 11.2545C115.284 10.3166 117.25 9.84769 119.56 9.84769V14.9339H118.261C112.74 14.9339 109.979 17.9279 109.979 23.9158V40.0401H105.054V10.3888H109.979V15.2044Z" fill="#3D3D3D"/>
<path d="M123.405 25.1062C123.405 22.0762 124.019 19.4249 125.246 17.1523C126.473 14.8437 128.151 13.0581 130.28 11.7956C132.445 10.5331 134.844 9.9018 137.478 9.9018C140.077 9.9018 142.332 10.4609 144.244 11.5792C146.157 12.6974 147.582 14.1042 148.52 15.7996V10.3888H153.5V40.0401H148.52V34.521C147.546 36.2525 146.085 37.6954 144.136 38.8497C142.224 39.9679 139.986 40.5271 137.424 40.5271C134.79 40.5271 132.409 39.8778 130.28 38.5792C128.151 37.2806 126.473 35.4589 125.246 33.1142C124.019 30.7695 123.405 28.1002 123.405 25.1062ZM148.52 25.1603C148.52 22.9238 148.069 20.976 147.167 19.3166C146.265 17.6573 145.038 16.3948 143.487 15.5291C141.971 14.6273 140.293 14.1764 138.453 14.1764C136.612 14.1764 134.934 14.6092 133.419 15.4749C131.903 16.3407 130.695 17.6032 129.792 19.2625C128.89 20.9218 128.439 22.8697 128.439 25.1062C128.439 27.3788 128.89 29.3627 129.792 31.0581C130.695 32.7174 131.903 33.998 133.419 34.8998C134.934 35.7655 136.612 36.1984 138.453 36.1984C140.293 36.1984 141.971 35.7655 143.487 34.8998C145.038 33.998 146.265 32.7174 147.167 31.0581C148.069 29.3627 148.52 27.3968 148.52 25.1603Z" fill="#3D3D3D"/>
</g>
<path id="X" d="M192.759 40L185.041 28.3618L178.241 40H167.77L179.914 20.6752L167.5 2H178.241L185.851 13.4758L192.543 2H203.014L190.978 21.1624L203.5 40H192.759Z" fill="#326EB4"/>
</g>
</svg>
